PathFileType	4	(X/Y/Z)	SUBJ24_3_walk_RCNL2025.trc
DataRate	CameraRate	NumFrames	NumMarkers	Units	OrigDataRate	OrigDataStartFrame	OrigNumFrames
100	100	13	25	mm	100	305	406
Frame#	Time	R_Shoulder			L_Shoulder			C7			J_Notch			R_Elbow			L_Elbow			R_Wrist			L_Wrist			R_Asis			L_Asis			Sacral			Thoracic			Sternum			R_Thigh_Lateral			R_Knee_Lateral			R_Shank_Lateral			R_Ankle_Lateral			R_Heel			R_Toe			L_Thigh_Lateral			L_Knee_Lateral			L_Shank_Lateral			L_Ankle_Lateral			L_Heel			L_Toe		
		X1	Y1	Z1	X2	Y2	Z2	X3	Y3	Z3	X4	Y4	Z4	X5	Y5	Z5	X6	Y6	Z6	X7	Y7	Z7	X8	Y8	Z8	X9	Y9	Z9	X10	Y10	Z10	X11	Y11	Z11	X12	Y12	Z12	X13	Y13	Z13	X14	Y14	Z14	X15	Y15	Z15	X16	Y16	Z16	X17	Y17	Z17	X18	Y18	Z18	X19	Y19	Z19	X20	Y20	Z20	X21	Y21	Z21	X22	Y22	Z22	X23	Y23	Z23	X24	Y24	Z24	X25	Y25	Z25
305	3.04000000	260.184052	1310.916748	395.622955	242.880569	1326.210693	51.909340	166.087051	1382.024658	226.659210	299.921661	1290.324829	221.374283	227.805908	1025.818726	484.796387	227.123505	1035.531128	-40.277786	289.666611	797.412750	463.313843	345.901276	830.729797	-32.665639	284.952972	886.899902	388.990875	258.886230	865.675049	64.566116	96.889214	923.016724	242.234146	99.399536	1114.723877	222.563934	371.754242	1072.718140	214.370804	253.179092	565.409180	418.449615	318.921539	441.775787	327.315277	313.907471	296.069641	373.184448	291.300446	65.442734	296.803040	241.361984	38.758484	239.665009	416.546173	44.108204	284.568207	232.745239	555.686096	32.485683	258.520630	430.914337	77.568855	134.657639	347.515137	35.409245	-41.257153	210.680176	109.331680	-78.113525	225.128571	175.516296	6.560649	93.856621	117.376030
306	3.05000000	272.212250	1312.656616	396.063263	253.382187	1327.301636	52.329346	177.442032	1383.632568	227.387253	311.118683	1291.712646	221.847321	242.767288	1027.709717	486.264618	234.536606	1036.621460	-39.131310	307.993759	800.328613	463.808548	346.705460	828.175751	-32.906627	295.484894	887.712646	390.063171	269.566193	867.453552	64.966644	107.757446	924.603882	243.554260	110.511780	1116.360718	224.295975	382.602448	1073.959717	214.742294	260.104218	566.664673	419.551544	322.381989	441.514618	327.928894	316.326874	295.730103	373.504456	291.460236	65.371254	296.800446	241.236740	38.999550	239.832397	416.651611	43.992481	284.531464	252.243591	558.394592	32.752037	281.916534	434.435150	77.340279	158.178375	351.362366	36.106979	-16.145540	212.667191	110.571976	-53.102135	226.205093	177.195099	33.790840	96.988884	117.558105
307	3.06000000	284.154572	1314.359741	396.497253	263.697632	1328.284790	52.732037	188.698761	1385.125366	228.109497	322.227234	1293.005249	222.279572	257.667206	1029.590454	487.711884	241.720810	1037.649170	-37.985603	326.387177	803.349823	464.210464	347.314194	825.888794	-33.167081	305.862091	888.324524	391.103760	280.205444	869.227722	65.245934	118.586258	926.047119	244.735931	121.557648	1117.878784	226.092575	393.378815	1075.145020	215.022690	266.707947	567.759399	420.419769	325.749939	441.249084	328.453796	318.604675	295.440399	373.776184	291.631531	65.320389	296.775635	241.140228	39.250397	239.976425	416.778625	43.870155	284.485168	271.721558	561.294495	33.038750	305.087982	438.183899	77.219604	182.026184	354.539185	36.694763	9.925121	213.050674	111.633461	-27.490900	225.796356	178.445786	62.631462	98.987556	118.507004
308	3.07000000	295.996490	1316.019531	396.940918	273.853851	1329.155396	53.134071	199.861282	1386.478149	228.834015	333.258392	1294.188965	222.680725	272.463013	1031.444092	489.141693	248.643173	1038.602173	-36.834721	344.809113	806.465149	464.519531	347.764420	823.853699	-33.430760	316.081482	888.764465	392.113037	290.896973	870.964966	65.472984	129.383545	927.327332	245.736374	132.555222	1119.246948	227.930038	404.105591	1076.274780	215.252548	272.815613	568.572327	421.001282	329.042603	440.979523	328.904999	320.649750	295.208160	374.030273	291.811646	65.292740	296.724854	241.094040	39.501236	240.082962	416.921356	43.745335	284.440369	291.125610	564.325745	33.342571	327.964783	442.061401	77.217590	206.199356	356.876617	37.174938	36.850502	211.908630	112.564545	-1.317124	223.883698	179.365555	92.910683	99.907333	119.995361
309	3.08000000	307.734680	1317.616333	397.403229	283.880371	1329.902100	53.546047	210.939941	1387.671143	229.566360	344.223938	1295.248413	223.056824	287.114960	1033.245117	490.559265	255.282837	1039.466187	-35.673523	363.224030	809.654266	464.738358	348.100037	822.046692	-33.687332	326.148773	889.064148	393.089294	301.721008	872.641785	65.705704	140.154785	928.432983	246.519958	143.517532	1120.440796	229.790665	414.799377	1077.340210	215.466660	278.391876	569.077209	421.302826	332.290894	440.706573	329.294617	322.453644	295.026733	374.284058	292.000153	65.290947	296.650024	241.110413	39.752491	240.145615	417.069244	43.620682	284.412476	310.390991	567.430847	33.661686	350.489807	445.973694	77.342010	230.663742	358.257996	37.578136	64.541107	209.340271	113.418594	25.403246	220.450790	180.048248	124.465393	99.838028	121.764717
310	3.09000000	319.376129	1319.120361	397.886017	293.807190	1330.510010	53.973091	221.950943	1388.690674	230.309250	355.135101	1296.169067	223.410629	301.590790	1034.963379	491.970642	261.635254	1040.230103	-34.497765	381.599442	812.890076	464.871796	348.368423	820.440796	-33.932250	336.076965	889.250732	394.034332	312.741180	874.246338	65.988075	150.903458	929.360046	247.063828	154.450241	1121.447510	231.658508	425.470306	1078.324707	215.690506	283.549042	569.340027	421.383301	335.535339	440.432556	329.631500	324.094086	294.875061	374.537933	292.199768	65.316856	296.556396	241.187424	40.008797	240.168304	417.211578	43.496483	284.412720	329.454315	570.557434	33.998180	372.610535	449.836945	77.599716	255.329224	358.659821	37.955818	92.932915	205.456619	114.232475	52.690289	215.491089	180.558060	157.136505	98.876671	123.579292
311	3.10000000	330.936340	1320.497559	398.384247	303.661652	1330.963745	54.415932	232.912750	1389.530029	231.063751	366.001923	1296.938477	223.742859	315.869110	1036.567383	493.380035	267.713928	1040.887207	-33.303612	399.906601	816.141174	464.926300	348.616425	819.009369	-34.164260	345.880646	889.342773	394.953094	324.000427	875.772583	66.349190	161.632324	930.110291	247.362335	165.352112	1122.267700	233.512817	436.124542	1079.205811	215.939331	288.502930	569.483154	421.330383	338.821259	440.160217	329.921844	325.703003	294.724731	374.778290	292.414398	65.371788	296.449768	241.312057	40.274666	240.161560	417.343414	43.371193	284.441040	348.264893	573.663452	34.356895	394.269104	453.581879	77.999298	280.063690	358.159363	38.367680	121.992554	200.372620	115.015839	80.615623	209.017883	180.932007	190.776550	97.114868	125.258209
312	3.11000000	342.435272	1321.713379	398.887360	313.466797	1331.250854	54.871807	243.841888	1390.188110	231.830200	376.833344	1297.546997	224.054199	329.943939	1038.026855	494.786560	273.549194	1041.436035	-32.087940	418.120926	819.374573	464.908661	348.888153	817.728729	-34.383264	355.576874	889.346313	395.844025	335.516998	877.211548	66.804459	172.344528	930.688416	247.428375	176.219818	1122.910400	235.325958	446.769257	1079.959351	216.217224	293.500427	569.635498	421.231567	342.191376	439.890259	330.168762	327.416077	294.552002	374.985046	292.646759	65.458748	296.336304	241.466431	40.554371	240.137589	417.465912	43.243103	284.489624	366.788147	576.716675	34.743217	415.395691	457.154755	78.552406	304.733185	356.900177	38.862339	151.718353	194.203415	115.750092	109.284767	201.094299	181.197037	225.267380	94.647476	126.683556
313	3.12000000	353.892944	1322.737671	399.382690	323.242096	1331.365234	55.335320	254.751541	1390.666382	232.606659	387.638062	1297.988281	224.346954	343.825775	1039.314453	496.181580	279.184204	1041.879395	-30.848484	436.221817	822.558319	464.824738	349.224258	816.579010	-34.588655	365.194733	889.255798	396.693817	347.283051	878.544861	67.357376	183.043900	931.100403	247.291412	187.051331	1123.385986	237.066269	457.415497	1080.563721	216.518036	298.747650	569.888672	421.150757	345.678467	439.620941	330.370544	329.327789	294.348053	375.140045	292.897125	65.584076	296.223480	241.632019	40.852928	240.107880	417.582428	43.111813	284.549805	384.999786	579.688232	35.164989	435.909912	460.512817	79.272469	329.231812	355.040649	39.456791	182.136215	187.067566	116.394165	138.798950	191.854752	181.371643	260.531311	91.587700	127.792862
314	3.13000000	365.325806	1323.548462	399.858765	333.004547	1331.308716	55.799992	265.652222	1390.965942	233.386810	398.425293	1298.258545	224.625015	357.536774	1040.408569	497.548706	284.669159	1042.225098	-29.583076	454.191772	825.662506	464.679062	349.660904	815.543671	-34.776866	374.773529	889.063965	397.485718	359.268677	879.746338	68.000076	193.735382	931.351257	246.992294	197.845795	1123.701904	238.703293	468.076813	1081.001709	216.830338	304.359009	570.270569	421.116028	349.302399	439.349487	330.520691	331.472015	294.121582	375.232513	293.162994	65.754326	296.117615	241.792831	41.176552	240.080063	417.696014	42.978779	284.614838	402.877350	582.543945	35.635899	455.729156	463.615173	80.170837	353.486389	352.720947	40.132290	213.288239	179.093781	116.894722	169.235504	181.490128	181.451935	296.522552	88.069244	128.570648
315	3.14000000	376.743835	1324.132324	400.307495	342.769470	1331.089722	56.259621	276.551727	1391.088013	234.160324	409.204834	1298.357056	224.892456	371.105438	1041.296021	498.866730	290.056793	1042.484009	-28.290087	472.015015	828.660187	464.476425	350.227539	814.607941	-34.938831	384.351227	888.766724	398.208618	371.429962	880.786926	68.712921	204.425735	931.441895	246.576050	208.603836	1123.861694	240.211990	478.765503	1081.263062	217.143845	310.337067	570.744446	421.119720	353.073914	439.073761	330.609436	333.830872	293.893250	375.260834	293.439392	65.971031	296.018646	241.939529	41.532745	240.052643	417.809082	42.846821	284.680573	420.388855	585.235107	36.176620	474.777466	466.416412	81.252579	377.447906	350.055908	40.851696	245.218155	170.426453	117.198296	200.647461	170.221115	181.408127	333.207092	84.238152	129.041168
316	3.15000000	388.149475	1324.482910	400.724030	352.551636	1330.722778	56.708153	287.454987	1391.035522	234.914459	419.986145	1298.285645	225.152405	384.564911	1041.972168	500.114929	295.399109	1042.667847	-26.970964	489.676910	831.527649	464.222275	350.946091	813.756897	-35.059371	393.962921	888.358887	398.854980	383.715668	881.638367	69.465858	215.123535	931.368347	246.084366	219.330383	1123.866943	241.572006	489.489319	1081.344116	217.452576	316.588684	571.232544	421.131317	357.000061	438.792145	330.625854	336.359863	293.685730	375.231476	293.718903	66.230263	295.918365	242.072479	41.928967	240.012390	417.923157	42.719498	284.745636	437.480865	587.691772	36.813324	492.990723	468.865143	82.514465	401.085846	347.133820	41.578384	277.956268	161.229858	117.263077	233.062302	158.284897	181.197083	370.548859	80.250229	129.252716
317	3.16000000	399.539337	1324.600098	401.106018	362.367493	1330.225708	57.138916	298.364777	1390.813354	235.635437	430.776154	1298.046753	225.406357	397.951355	1042.438599	501.276764	300.746002	1042.787720	-25.631956	507.163605	834.243378	463.920486	351.836609	812.975922	-35.120392	403.647491	887.828430	399.413971	396.071442	882.275330	70.222137	225.837296	931.124878	245.550644	230.036804	1123.719971	242.762314	500.250488	1081.248047	217.754578	322.971710	571.651611	421.116028	361.087891	438.502594	330.561554	339.011810	293.515381	375.154785	293.991486	66.527847	295.805206	242.202225	42.370979	239.939377	418.039215	42.600887	284.811340	454.073669	589.824402	37.572136	510.319946	470.906464	83.944687	424.387482	344.013489	42.283772	311.506622	151.690857	117.067360	266.478851	145.930389	180.778717	408.501526	76.275566	129.253647
